<?xml version="1.0" encoding="UTF-8"?>
<svg version="1.1" xmlns="http://www.w3.org/2000/svg" width="512" height="512">
<path d="M0 0 C2.06454842 -0.00072627 4.12909075 -0.00288918 6.19363761 -0.00549722 C13.48810392 -0.01467542 20.78255233 -0.01884259 28.07702422 -0.01804566 C33.99404422 -0.01751568 39.9109977 -0.02452184 45.82800078 -0.03855348 C102.5615369 -0.16989764 102.5615369 -0.16989764 129.70275664 1.05397582 C131.02571714 1.11239622 131.02571714 1.11239622 132.37540412 1.17199683 C141.38931617 1.58480394 150.36550461 2.20962623 159.34264922 3.12746215 C160.09808611 3.20379473 160.853523 3.28012731 161.63185191 3.35877299 C199.45384445 7.46576065 234.6861708 25.68604826 259.15954375 54.8957727 C268.63553221 66.7108915 275.76230417 80.07596173 281.19103789 94.16725707 C281.63963164 95.30678832 282.08822539 96.44631957 282.55041289 97.62038207 C294.91030826 131.64824214 294.35051751 168.74938501 294.39122653 204.42297626 C294.39418992 206.89291194 294.39829957 209.36284332 294.4027307 211.83277678 C294.41632105 219.58867855 294.42603648 227.34457012 294.42993259 235.10048294 C294.43443481 244.00718835 294.45211758 252.91374195 294.48093319 261.82040119 C294.50256119 268.74826379 294.51263697 275.67608359 294.51397371 282.60397959 C294.51501814 286.72542568 294.52085232 290.84672737 294.53879333 294.9681375 C294.55530034 298.83271681 294.55741696 302.6970432 294.54865432 306.56164527 C294.54788617 307.97413413 294.55219727 309.38663683 294.56211257 310.7990911 C294.66801037 326.82860011 294.66801037 326.82860011 289.39416289 333.40944457 C283.54721048 338.29749679 278.88937876 340.48308211 271.12853789 340.04225707 C265.13144482 339.25173117 261.41357493 336.69742191 257.44103789 332.22975707 C253.96134913 327.49351403 252.94216177 323.92017937 252.92602324 318.06654906 C252.91775008 316.83946227 252.90947692 315.61237548 252.90095305 314.34810424 C252.90177767 312.99550403 252.90277533 311.64290392 252.90392852 310.29030395 C252.8979001 308.85880179 252.89097479 307.42730317 252.88322234 305.99580932 C252.86833887 302.91239931 252.85958482 299.829054 252.85551238 296.74561095 C252.84876357 291.83926075 252.82695607 286.93304619 252.80297637 282.02675414 C252.75401199 271.57362052 252.72184767 261.12045745 252.69103789 250.66725707 C252.65781478 239.46059895 252.62118223 228.25399383 252.56690717 217.04741502 C252.54768637 212.98493209 252.53226288 208.92251698 252.52656341 204.85999084 C252.72137676 133.71112529 252.72137676 133.71112529 218.75353789 73.35475707 C180.16138668 36.09705092 119.89866483 42.23713559 70.31603789 41.54225707 C69.15481666 41.52568368 69.15481666 41.52568368 67.9701364 41.50877547 C27.87686868 40.94200856 -12.1788686 41.384734 -52.24646211 43.04225707 C-53.1093686 43.07542022 -53.97227509 43.10858336 -54.86133027 43.14275146 C-64.31724341 43.51852338 -73.63767122 44.28317819 -83.01208711 45.60085082 C-83.8686641 45.72108611 -84.7252411 45.8413214 -85.60777497 45.96520019 C-112.14161495 49.93696974 -136.23398747 64.04800116 -152.80896211 85.16725707 C-174.43499204 115.18356375 -175.96798655 154.34500074 -175.95422578 190.00465941 C-175.95722999 191.59733191 -175.96063533 193.19000368 -175.96440339 194.78267455 C-175.97312219 199.05195154 -175.97557638 203.32120841 -175.97621918 207.59049344 C-175.97693695 210.27599165 -175.97908484 212.96148497 -175.98171639 215.64698195 C-175.99093174 225.06796881 -175.99505634 234.48894164 -175.99426484 243.90993285 C-175.99366599 252.60642738 -176.00418986 261.3028595 -176.0200085 269.99933827 C-176.03321252 277.53468662 -176.03844338 285.07001491 -176.03780943 292.60537469 C-176.03755806 297.07509458 -176.04020366 301.54475894 -176.05098748 306.014467 C-176.48756691 377.68888128 -176.48756691 377.68888128 -142.68396211 438.79225707 C-129.98753574 451.06429035 -114.34179356 459.37485521 -97.37146211 463.97975707 C-96.65764375 464.17480834 -95.94382539 464.36985961 -95.20837617 464.57082152 C-81.52823742 467.99993193 -67.27905371 468.62162193 -53.24646211 469.22975707 C-52.3387909 469.27017119 -51.4311197 469.31058532 -50.49594331 469.35222411 C9.16313548 471.9449398 69.03669626 471.76529241 128.69103789 469.29225707 C129.55208129 469.25909392 130.41312469 469.22593078 131.30026031 469.19176269 C140.73583989 468.81585461 150.03598395 468.04820839 159.39025664 466.73366332 C160.24708037 466.61342803 161.1039041 466.49319274 161.98669219 466.36931396 C186.79351739 462.65749279 212.07897339 449.68934173 227.45666289 429.50612426 C231.61729297 423.66030392 235.06268653 417.4853036 238.30456328 411.0947473 C242.05460379 403.71686168 244.96951179 398.90776577 253.19103789 396.16725707 C260.25686711 395.49063868 266.6784977 395.13876479 272.53869414 399.56178832 C277.4561835 404.33977444 280.11186185 409.52095589 280.43713164 416.42506957 C279.02123224 432.20223436 266.31881864 448.78024959 256.19103789 460.16725707 C255.49623321 460.99354613 254.80142852 461.8198352 254.08556914 462.67116332 C234.47267058 485.49929116 207.11802677 499.27932378 178.19103789 506.16725707 C177.50461211 506.33451293 176.81818633 506.50176879 176.11095977 506.67409301 C144.38077634 514.11835905 108.74912431 512.32806496 76.34914422 512.33451414 C74.28259348 512.33524032 72.21604884 512.33740304 70.14949965 512.34001136 C62.84970231 512.34918879 55.54992285 512.35335675 48.25011992 512.3525598 C42.32626404 512.3520296 36.40247456 512.35904155 30.47863555 512.37306762 C-26.37087615 512.50447978 -26.37087615 512.50447978 -52.75427461 511.28053832 C-53.60817655 511.24159139 -54.46207849 511.20264445 -55.34185624 511.16251731 C-64.39258749 510.73402128 -73.41057405 510.07876979 -82.42956758 509.20705199 C-83.23372668 509.13071941 -84.03788579 509.05438684 -84.86641335 508.97574115 C-93.35349103 508.11042421 -101.57999725 506.39263162 -109.80896211 504.16725707 C-110.53260957 503.97180297 -111.25625703 503.77634887 -112.0018332 503.57497191 C-147.27410799 493.6911985 -176.96016604 470.22766381 -195.30114961 438.72194457 C-199.02816348 432.090837 -202.07668418 425.25939627 -204.80896211 418.16725707 C-205.48185273 416.4579602 -205.48185273 416.4579602 -206.16833711 414.71413207 C-218.77058127 380.0190648 -217.97086841 342.21930978 -217.97621918 305.86784196 C-217.97693721 303.11951446 -217.97908555 300.37119174 -217.98171639 297.62286544 C-217.9909299 287.98027018 -217.99505654 278.33768861 -217.99426484 268.6950891 C-217.99366595 259.79580491 -218.00419111 250.8965817 -218.0200085 241.9973129 C-218.0332143 234.2844356 -218.03844331 226.5715779 -218.03780943 218.85868943 C-218.03755813 214.28443622 -218.04020005 209.71023727 -218.05098748 205.13599563 C-218.16617697 152.54445376 -217.2187558 95.05960657 -180.80896211 53.16725707 C-180.09997773 52.33710082 -179.39099336 51.50694457 -178.66052461 50.65163207 C-151.74424166 19.86318211 -113.8327127 5.13715637 -73.76916718 2.30299926 C-49.19078069 0.68474411 -24.62941995 0.00490829 0 0 Z " fill="#000000" transform="translate(217.8089621067047,-0.16725707054138184)"/>
<path d="M0 0 C0.70543945 0.20367187 1.41087891 0.40734375 2.13769531 0.6171875 C33.81148598 9.93385402 60.55569414 32.51424198 76.3125 61.375 C80.42675633 69.274083 83.46694361 77.47331319 86 86 C86.31759277 87.03374756 86.31759277 87.03374756 86.64160156 88.08837891 C92.87289812 109.19677255 92.4004985 135.01071093 86 156 C85.79632813 156.70543945 85.59265625 157.41087891 85.3828125 158.13769531 C76.06614598 189.81148598 53.48575802 216.55569414 24.625 232.3125 C16.725917 236.42675633 8.52668681 239.46694361 0 242 C-0.68916504 242.21172852 -1.37833008 242.42345703 -2.08837891 242.64160156 C-23.19677255 248.87289812 -49.01071093 248.4004985 -70 242 C-71.05815918 241.69449219 -71.05815918 241.69449219 -72.13769531 241.3828125 C-103.81846987 232.0640917 -130.54558233 209.48453382 -146.3125 180.625 C-150.44067684 172.74667308 -153.35229769 164.47264739 -156 156 C-156.31839844 155.0203125 -156.63679687 154.040625 -156.96484375 153.03125 C-165.96049564 121.88212702 -160.16749095 87.86780767 -144.99658203 59.80126953 C-128.65088508 30.25728322 -102.15211183 9.53116611 -70 0 C-47.73506787 -5.93113697 -22.19848125 -6.76923099 0 0 Z M-95.28515625 61.125 C-114.29000055 81.25099339 -119.94740438 104.01551197 -119.18359375 130.87109375 C-118.80845711 137.26437992 -117.24993233 143.00263939 -115 149 C-114.63777344 150.03769531 -114.27554688 151.07539063 -113.90234375 152.14453125 C-105.95682441 173.12608911 -89.54278085 189.02313312 -69.4921875 198.5 C-46.7433443 208.2713152 -23.91758661 207.57474675 -0.875 198.8125 C19.60243806 189.81233569 35.52971322 172.55173031 44 152 C50.6103272 133.16800675 52.09331877 111.94662776 45 93 C44.649375 91.97390625 44.29875 90.9478125 43.9375 89.890625 C36.16891236 69.06649425 19.31502741 52.86921974 -0.5078125 43.5 C-32.82784636 29.61756935 -70.21883032 36.31946989 -95.28515625 61.125 Z " fill="#000000" transform="translate(290,135)"/>
<path d="M0 0 C3.58598889 2.54054385 6.15992797 5.04327701 8.4921875 8.765625 C8.90210938 9.38695313 9.31203125 10.00828125 9.734375 10.6484375 C13.58244889 17.62804738 13.74273274 26.02607545 12.4921875 33.765625 C10.09120579 41.34186763 6.27912589 47.51322792 -0.5078125 51.765625 C-1.12914062 52.17554688 -1.75046875 52.58546875 -2.390625 53.0078125 C-9.37023488 56.85588639 -17.76826295 57.01617024 -25.5078125 55.765625 C-33.08405513 53.36464329 -39.25541542 49.55256339 -43.5078125 42.765625 C-43.91773438 42.14429688 -44.32765625 41.52296875 -44.75 40.8828125 C-48.59807389 33.90320262 -48.75835774 25.50517455 -47.5078125 17.765625 C-45.10683079 10.18938237 -41.29475089 4.01802208 -34.5078125 -0.234375 C-33.88648438 -0.64429687 -33.26515625 -1.05421875 -32.625 -1.4765625 C-22.455808 -7.08315125 -9.72162164 -5.63801363 0 0 Z " fill="#000000" transform="translate(411.5078125,95.234375)"/>
</svg>
