<?xml version="1.0" encoding="UTF-8"?>
<svg version="1.1" xmlns="http://www.w3.org/2000/svg" width="512" height="512">
<path d="M0 0 C2.80290194 -0.00488538 5.6057748 -0.01568694 8.40866089 -0.02610779 C15.18835805 -0.04758755 21.96788634 -0.04766223 28.74760625 -0.03948224 C34.26708967 -0.03314364 39.78652441 -0.03435433 45.30600739 -0.04075432 C46.09609649 -0.04165597 46.88618559 -0.04255763 47.70021679 -0.04348661 C49.30607183 -0.0453381 50.91192686 -0.04720067 52.51778188 -0.04907417 C67.52737274 -0.06559751 82.53686921 -0.05698094 97.54645434 -0.04008859 C111.22589419 -0.02540407 124.90511413 -0.04001215 138.58452567 -0.06885875 C152.68894687 -0.0983761 166.79326703 -0.10918881 180.89771771 -0.09967655 C182.49839352 -0.09865418 184.09906934 -0.09765956 185.69974518 -0.09669304 C186.48696779 -0.09621665 187.2741904 -0.09574026 188.08526824 -0.09524943 C193.58456205 -0.09310112 199.08375845 -0.10280438 204.5830307 -0.11746407 C211.30465935 -0.13513489 218.02600838 -0.13466221 224.74762675 -0.11211241 C228.16549075 -0.10110033 231.58246816 -0.10029287 235.00037003 -0.11641312 C274.09026225 -0.28603089 306.10020255 10.57330056 334.77050781 37.53344727 C335.36089844 38.05938477 335.95128906 38.58532227 336.55957031 39.12719727 C355.34776951 56.57974249 365.85990568 81.88089738 370.77050781 106.53344727 C371.03113227 107.75244642 371.03113227 107.75244642 371.29702187 108.99607182 C371.96858651 114.01327729 371.92209331 118.97709375 371.92440796 124.03379822 C371.93098134 125.78124064 371.93098134 125.78124064 371.93768752 127.56398493 C371.94872003 130.78968221 371.95529001 134.01535218 371.95986867 137.24106395 C371.96584416 140.7240584 371.97744964 144.2070352 371.98815918 147.6900177 C372.01264735 156.10149086 372.02730953 164.51296984 372.04021925 172.92446765 C372.04393523 175.30433071 372.04790817 177.68419319 372.05197191 180.06405568 C372.07722369 194.87142017 372.09925727 209.67878569 372.11170006 224.48616695 C372.11462935 227.91395509 372.11759106 231.34174319 372.12060547 234.76953125 C372.12135152 235.62140216 372.12209757 236.47327306 372.12286623 237.35095824 C372.13548862 251.11527024 372.1686707 264.87945216 372.2104073 278.64370351 C372.25299633 292.80645075 372.27641497 306.96913176 372.28162062 321.13194281 C372.2850167 329.07092458 372.2965558 337.00970348 372.32972336 344.94862175 C372.35795997 351.71810944 372.36862151 358.48735268 372.3575279 365.25689464 C372.35239973 368.70090937 372.35483684 372.14441422 372.37999344 375.5883522 C372.61990667 414.75770697 361.78756696 446.80261944 334.77050781 475.53344727 C334.24457031 476.12383789 333.71863281 476.71422852 333.17675781 477.32250977 C319.04616578 492.53452466 298.57967112 503.10837131 278.77050781 508.53344727 C278.13323934 508.71057593 277.49597087 508.8877046 276.83939123 509.0702008 C261.80766158 513.10147277 247.01538715 513.10825985 231.54101562 513.06689453 C228.73811368 513.07177991 225.93524083 513.08258147 223.13235474 513.09300232 C216.35265757 513.11448208 209.57312929 513.11455676 202.79340938 513.10637677 C197.27392595 513.10003817 191.75449122 513.10124886 186.23500824 513.10764885 C185.44491914 513.1085505 184.65483004 513.10945216 183.84079884 513.11038114 C182.23494379 513.11223263 180.62908876 513.1140952 179.02323374 513.1159687 C164.01364288 513.13249204 149.00414642 513.12387547 133.99456128 513.10698312 C120.31512143 513.0922986 106.63590149 513.10690668 92.95648995 513.13575328 C78.85206875 513.16527063 64.7477486 513.17608334 50.64329791 513.16657108 C49.04262211 513.16554871 47.44194629 513.16455409 45.84127045 513.16358757 C45.05404784 513.16311118 44.26682522 513.16263479 43.45574738 513.16214396 C37.95645358 513.15999565 32.45725718 513.16969891 26.95798492 513.1843586 C20.23635628 513.20202942 13.51500725 513.20155674 6.79338887 513.17900694 C3.37552488 513.16799486 -0.04145253 513.1671874 -3.4593544 513.18330765 C-42.54924663 513.35292542 -74.55918693 502.49359397 -103.22949219 475.53344727 C-104.11507812 474.74454102 -104.11507812 474.74454102 -105.01855469 473.93969727 C-120.2319379 459.80783418 -130.80145312 439.34309033 -136.22949219 419.53344727 C-136.49543833 418.57855715 -136.49543833 418.57855715 -136.76675713 417.60437632 C-140.64188682 403.18917513 -140.8046906 389.05059843 -140.73773181 374.19970512 C-140.72646335 370.70958167 -140.73861594 367.21952007 -140.74757385 363.72940063 C-140.76140032 356.92028664 -140.75403022 350.11135996 -140.73889827 343.30225512 C-140.72191398 335.35285529 -140.7252638 327.40350051 -140.72899235 319.45408812 C-140.73485112 305.26175363 -140.7207756 291.06950827 -140.69604492 276.87719727 C-140.67211186 263.1408352 -140.66505029 249.40459207 -140.67553711 235.66821289 C-140.68697205 220.66329992 -140.68884603 205.65844175 -140.67443901 190.65352941 C-140.67291336 189.05075026 -140.67139301 187.44797111 -140.66987801 185.84519196 C-140.66912019 185.05684365 -140.66836238 184.26849534 -140.6675816 183.45625769 C-140.66286007 177.92919141 -140.66467486 172.4021498 -140.66894341 166.87508392 C-140.6738934 160.13278258 -140.66778201 153.39059317 -140.64804911 146.64831731 C-140.63824601 143.21547166 -140.63299549 139.78279567 -140.64094162 136.34994125 C-140.68314139 110.10021533 -140.68314139 110.10021533 -137.22949219 97.53344727 C-137.03756507 96.76077892 -136.84563795 95.98811058 -136.64789486 95.19202805 C-128.40732609 63.32641727 -107.11501776 35.09241808 -78.94433594 18.15991211 C-68.76354377 12.3000863 -58.57442129 7.64044887 -47.22949219 4.53344727 C-46.59222372 4.3563186 -45.95495524 4.17918993 -45.29837561 3.99669373 C-30.26664596 -0.03457824 -15.47437153 -0.04136532 0 0 Z M238.77050781 90.53344727 C238.07183594 90.94594727 237.37316406 91.35844727 236.65332031 91.78344727 C229.96212794 96.22740899 225.73441341 102.77484006 223.33300781 110.40844727 C221.50989161 119.82788096 223.56550122 128.59435013 228.77050781 136.53344727 C231.14551572 139.40985343 231.14551572 139.40985343 233.77050781 141.53344727 C234.55425781 142.23469727 235.33800781 142.93594727 236.14550781 143.65844727 C243.41895122 148.85376399 251.58668447 150.4619222 260.45019531 149.13110352 C270.25472999 146.55015903 276.72589495 141.40776979 282.36035156 133.09594727 C286.54671674 125.48859115 287.04307705 117.20362917 285.15332031 108.78344727 C282.12595044 100.21036445 276.55734512 93.65997094 268.45800781 89.53344727 C258.54151069 85.05000744 248.21555354 84.78741184 238.77050781 90.53344727 Z M34.33251953 187.7331543 C15.23220565 209.74717658 7.80845493 238.93162135 9.77050781 267.53344727 C12.97541847 296.04379836 27.21089968 320.82740267 48.77050781 339.53344727 C71.61858582 357.58796824 100.63041304 365.47191225 129.48095703 362.22875977 C157.3146648 358.17646136 182.71151561 343.85617458 200.22705078 321.69018555 C217.5791045 298.21315699 225.30078417 269.16391687 221.08300781 240.19360352 C216.37510019 212.77329296 201.59288099 187.35103518 179.05566406 170.69360352 C132.29670092 137.83644445 72.47064037 146.37953396 34.33251953 187.7331543 Z " fill="#000000" transform="translate(140.2294921875,-0.533447265625)"/>
</svg>
